%TF.GenerationSoftware,KiCad,Pcbnew,10.0.1*%
%TF.CreationDate,2026-08-24T21:27:02-04:00*%
%TF.ProjectId,benchpsu,62656e63-6870-4737-952e-6b696361645f,rev?*%
%TF.SameCoordinates,Original*%
%TF.FileFunction,Soldermask,Top*%
%TF.FilePolarity,Negative*%
%FSLAX46Y46*%
G04 Gerber Fmt 4.6, Leading zero omitted, Abs format (unit mm)*
G04 Created by KiCad (PCBNEW 10.0.1) date 2026-08-24 21:27:02*
%MOMM*%
%LPD*%
G01*
G04 APERTURE LIST*
G04 Aperture macros list*
%AMRoundRect*
0 Rectangle with rounded corners*
0 $1 Rounding radius*
0 $2 $3 $4 $5 $6 $7 $8 $9 X,Y pos of 4 corners*
0 Add a 4 corners polygon primitive as box body*
4,1,4,$2,$3,$4,$5,$6,$7,$8,$9,$2,$3,0*
0 Add four circle primitives for the rounded corners*
1,1,$1+$1,$2,$3*
1,1,$1+$1,$4,$5*
1,1,$1+$1,$6,$7*
1,1,$1+$1,$8,$9*
0 Add four rect primitives between the rounded corners*
20,1,$1+$1,$2,$3,$4,$5,0*
20,1,$1+$1,$4,$5,$6,$7,0*
20,1,$1+$1,$6,$7,$8,$9,0*
20,1,$1+$1,$8,$9,$2,$3,0*%
G04 Aperture macros list end*
%ADD10RoundRect,0.250000X-0.250000X-0.475000X0.250000X-0.475000X0.250000X0.475000X-0.250000X0.475000X0*%
%ADD11RoundRect,0.250000X0.262500X0.450000X-0.262500X0.450000X-0.262500X-0.450000X0.262500X-0.450000X0*%
%ADD12C,3.200000*%
%ADD13RoundRect,0.150000X0.150000X-0.825000X0.150000X0.825000X-0.150000X0.825000X-0.150000X-0.825000X0*%
%ADD14RoundRect,0.250000X0.475000X-0.250000X0.475000X0.250000X-0.475000X0.250000X-0.475000X-0.250000X0*%
%ADD15R,1.600000X1.600000*%
%ADD16O,1.600000X1.600000*%
%ADD17O,1.501600X1.501600*%
%ADD18RoundRect,0.250000X-0.750000X-0.750000X0.750000X-0.750000X0.750000X0.750000X-0.750000X0.750000X0*%
%ADD19C,2.000000*%
%ADD20RoundRect,0.250000X-0.262500X-0.450000X0.262500X-0.450000X0.262500X0.450000X-0.262500X0.450000X0*%
%ADD21RoundRect,0.250000X1.050000X1.050000X-1.050000X1.050000X-1.050000X-1.050000X1.050000X-1.050000X0*%
%ADD22C,2.600000*%
%ADD23RoundRect,0.250000X1.425000X-0.362500X1.425000X0.362500X-1.425000X0.362500X-1.425000X-0.362500X0*%
%ADD24RoundRect,0.250000X0.250000X0.475000X-0.250000X0.475000X-0.250000X-0.475000X0.250000X-0.475000X0*%
%ADD25RoundRect,0.250000X-1.050000X1.050000X-1.050000X-1.050000X1.050000X-1.050000X1.050000X1.050000X0*%
%ADD26R,1.574800X1.574800*%
%ADD27C,1.574800*%
%ADD28RoundRect,0.218750X0.218750X0.381250X-0.218750X0.381250X-0.218750X-0.381250X0.218750X-0.381250X0*%
%ADD29RoundRect,0.250000X-0.650000X1.000000X-0.650000X-1.000000X0.650000X-1.000000X0.650000X1.000000X0*%
%ADD30RoundRect,0.250000X-0.475000X0.250000X-0.475000X-0.250000X0.475000X-0.250000X0.475000X0.250000X0*%
%ADD31R,1.700000X1.700000*%
%ADD32C,1.700000*%
%ADD33RoundRect,0.250000X1.500000X0.550000X-1.500000X0.550000X-1.500000X-0.550000X1.500000X-0.550000X0*%
%ADD34RoundRect,0.250000X0.450000X-0.262500X0.450000X0.262500X-0.450000X0.262500X-0.450000X-0.262500X0*%
%ADD35R,2.000000X2.000000*%
%ADD36RoundRect,0.250000X1.050000X-1.050000X1.050000X1.050000X-1.050000X1.050000X-1.050000X-1.050000X0*%
%ADD37RoundRect,0.250001X-0.949999X-0.949999X0.949999X-0.949999X0.949999X0.949999X-0.949999X0.949999X0*%
%ADD38C,2.400000*%
G04 APERTURE END LIST*
D10*
%TO.C,C10*%
X155407677Y-71250000D03*
X157307677Y-71250000D03*
%TD*%
D11*
%TO.C,R5*%
X165617677Y-77750000D03*
X163792677Y-77750000D03*
%TD*%
D12*
%TO.C,H1*%
X110867677Y-68750000D03*
%TD*%
D13*
%TO.C,U2*%
X167962677Y-86675000D03*
X169232677Y-86675000D03*
X170502677Y-86675000D03*
X171772677Y-86675000D03*
X171772677Y-81725000D03*
X170502677Y-81725000D03*
X169232677Y-81725000D03*
X167962677Y-81725000D03*
%TD*%
D12*
%TO.C,H2*%
X187367677Y-68750000D03*
%TD*%
D14*
%TO.C,C12*%
X169117677Y-78150000D03*
X169117677Y-76250000D03*
%TD*%
D15*
%TO.C,A1*%
X148807677Y-105490000D03*
D16*
X151347677Y-105490000D03*
X153887677Y-105490000D03*
X156427677Y-105490000D03*
X158967677Y-105490000D03*
X161507677Y-105490000D03*
X164047677Y-105490000D03*
X166587677Y-105490000D03*
X169127677Y-105490000D03*
X171667677Y-105490000D03*
X174207677Y-105490000D03*
X176747677Y-105490000D03*
X179287677Y-105490000D03*
X181827677Y-105490000D03*
X184367677Y-105490000D03*
X184367677Y-90250000D03*
X181827677Y-90250000D03*
X179287677Y-90250000D03*
X176747677Y-90250000D03*
X174207677Y-90250000D03*
X171667677Y-90250000D03*
X169127677Y-90250000D03*
X166587677Y-90250000D03*
X164047677Y-90250000D03*
X161507677Y-90250000D03*
X158967677Y-90250000D03*
X156427677Y-90250000D03*
X153887677Y-90250000D03*
X151347677Y-90250000D03*
X148807677Y-90250000D03*
%TD*%
D17*
%TO.C,U1*%
X121587777Y-91750000D03*
X123437777Y-91750000D03*
X125287777Y-91750000D03*
X127137777Y-91750000D03*
X128987777Y-91750000D03*
%TD*%
D12*
%TO.C,H4*%
X187867677Y-111250000D03*
%TD*%
D18*
%TO.C,C6*%
X135500000Y-89750000D03*
D19*
X140500000Y-89750000D03*
%TD*%
D20*
%TO.C,R1*%
X125455177Y-67250000D03*
X127280177Y-67250000D03*
%TD*%
D21*
%TO.C,J5*%
X167857677Y-70750000D03*
D22*
X162857677Y-70750000D03*
%TD*%
D18*
%TO.C,C7*%
X135000000Y-101750000D03*
D19*
X140000000Y-101750000D03*
%TD*%
D23*
%TO.C,R3*%
X159617677Y-82962500D03*
X159617677Y-77037500D03*
%TD*%
D24*
%TO.C,C5*%
X176517677Y-86250000D03*
X174617677Y-86250000D03*
%TD*%
D25*
%TO.C,J3*%
X112867677Y-91750000D03*
D22*
X112867677Y-96750000D03*
X112867677Y-101750000D03*
%TD*%
D26*
%TO.C,U3*%
X148367677Y-82249932D03*
D27*
X150907677Y-82249932D03*
X153447677Y-82249932D03*
%TD*%
D28*
%TO.C,L3*%
X128930177Y-105750000D03*
X126805177Y-105750000D03*
%TD*%
D29*
%TO.C,D3*%
X125367677Y-96750000D03*
X125367677Y-100750000D03*
%TD*%
D30*
%TO.C,C4*%
X129867677Y-95750000D03*
X129867677Y-97650000D03*
%TD*%
%TO.C,CFF1*%
X121367677Y-95800000D03*
X121367677Y-97700000D03*
%TD*%
D11*
%TO.C,R4*%
X148192677Y-108750000D03*
X146367677Y-108750000D03*
%TD*%
D31*
%TO.C,J6*%
X141167677Y-112500000D03*
D32*
X143707677Y-112500000D03*
X146247677Y-112500000D03*
X148787677Y-112500000D03*
X151327677Y-112500000D03*
X153867677Y-112500000D03*
X156407677Y-112500000D03*
X158947677Y-112500000D03*
X161487677Y-112500000D03*
X164027677Y-112500000D03*
X166567677Y-112500000D03*
X169107677Y-112500000D03*
X171647677Y-112500000D03*
X174187677Y-112500000D03*
X176727677Y-112500000D03*
X179267677Y-112500000D03*
%TD*%
D33*
%TO.C,C9*%
X151157677Y-71000000D03*
X145557677Y-71000000D03*
%TD*%
D11*
%TO.C,R2*%
X124280177Y-105750000D03*
X122455177Y-105750000D03*
%TD*%
D34*
%TO.C,R6*%
X172367677Y-78075000D03*
X172367677Y-76250000D03*
%TD*%
D30*
%TO.C,C11*%
X129867677Y-99800000D03*
X129867677Y-101700000D03*
%TD*%
%TO.C,C3*%
X121367677Y-99800000D03*
X121367677Y-101700000D03*
%TD*%
D35*
%TO.C,D1*%
X121367677Y-67250000D03*
D19*
X121367677Y-72250000D03*
X121367677Y-77250000D03*
X121367677Y-82250000D03*
%TD*%
D36*
%TO.C,J4*%
X185867677Y-85250000D03*
D22*
X185867677Y-80250000D03*
X185867677Y-75250000D03*
%TD*%
D25*
%TO.C,J2*%
X113000177Y-76250000D03*
D22*
X113000177Y-81250000D03*
%TD*%
D12*
%TO.C,H3*%
X110367677Y-111250000D03*
%TD*%
D37*
%TO.C,C1*%
X129854923Y-75750000D03*
D38*
X137354923Y-75750000D03*
%TD*%
M02*
