%TF.GenerationSoftware,KiCad,Pcbnew,10.0.1*%
%TF.CreationDate,2026-08-24T21:27:01-04:00*%
%TF.ProjectId,benchpsu,62656e63-6870-4737-952e-6b696361645f,rev?*%
%TF.SameCoordinates,Original*%
%TF.FileFunction,Copper,L1,Top*%
%TF.FilePolarity,Positive*%
%FSLAX46Y46*%
G04 Gerber Fmt 4.6, Leading zero omitted, Abs format (unit mm)*
G04 Created by KiCad (PCBNEW 10.0.1) date 2026-08-24 21:27:01*
%MOMM*%
%LPD*%
G01*
G04 APERTURE LIST*
G04 Aperture macros list*
%AMRoundRect*
0 Rectangle with rounded corners*
0 $1 Rounding radius*
0 $2 $3 $4 $5 $6 $7 $8 $9 X,Y pos of 4 corners*
0 Add a 4 corners polygon primitive as box body*
4,1,4,$2,$3,$4,$5,$6,$7,$8,$9,$2,$3,0*
0 Add four circle primitives for the rounded corners*
1,1,$1+$1,$2,$3*
1,1,$1+$1,$4,$5*
1,1,$1+$1,$6,$7*
1,1,$1+$1,$8,$9*
0 Add four rect primitives between the rounded corners*
20,1,$1+$1,$2,$3,$4,$5,0*
20,1,$1+$1,$4,$5,$6,$7,0*
20,1,$1+$1,$6,$7,$8,$9,0*
20,1,$1+$1,$8,$9,$2,$3,0*%
G04 Aperture macros list end*
%TA.AperFunction,SMDPad,CuDef*%
%ADD10RoundRect,0.250000X-0.250000X-0.475000X0.250000X-0.475000X0.250000X0.475000X-0.250000X0.475000X0*%
%TD*%
%TA.AperFunction,SMDPad,CuDef*%
%ADD11RoundRect,0.250000X0.262500X0.450000X-0.262500X0.450000X-0.262500X-0.450000X0.262500X-0.450000X0*%
%TD*%
%TA.AperFunction,SMDPad,CuDef*%
%ADD12RoundRect,0.150000X0.150000X-0.825000X0.150000X0.825000X-0.150000X0.825000X-0.150000X-0.825000X0*%
%TD*%
%TA.AperFunction,SMDPad,CuDef*%
%ADD13RoundRect,0.250000X0.475000X-0.250000X0.475000X0.250000X-0.475000X0.250000X-0.475000X-0.250000X0*%
%TD*%
%TA.AperFunction,ComponentPad*%
%ADD14R,1.600000X1.600000*%
%TD*%
%TA.AperFunction,ComponentPad*%
%ADD15O,1.600000X1.600000*%
%TD*%
%TA.AperFunction,ComponentPad*%
%ADD16O,1.400000X1.400000*%
%TD*%
%TA.AperFunction,ComponentPad*%
%ADD17RoundRect,0.250000X-0.750000X-0.750000X0.750000X-0.750000X0.750000X0.750000X-0.750000X0.750000X0*%
%TD*%
%TA.AperFunction,ComponentPad*%
%ADD18C,2.000000*%
%TD*%
%TA.AperFunction,SMDPad,CuDef*%
%ADD19RoundRect,0.250000X-0.262500X-0.450000X0.262500X-0.450000X0.262500X0.450000X-0.262500X0.450000X0*%
%TD*%
%TA.AperFunction,ComponentPad*%
%ADD20RoundRect,0.250000X1.050000X1.050000X-1.050000X1.050000X-1.050000X-1.050000X1.050000X-1.050000X0*%
%TD*%
%TA.AperFunction,ComponentPad*%
%ADD21C,2.600000*%
%TD*%
%TA.AperFunction,SMDPad,CuDef*%
%ADD22RoundRect,0.250000X1.425000X-0.362500X1.425000X0.362500X-1.425000X0.362500X-1.425000X-0.362500X0*%
%TD*%
%TA.AperFunction,SMDPad,CuDef*%
%ADD23RoundRect,0.250000X0.250000X0.475000X-0.250000X0.475000X-0.250000X-0.475000X0.250000X-0.475000X0*%
%TD*%
%TA.AperFunction,ComponentPad*%
%ADD24RoundRect,0.250000X-1.050000X1.050000X-1.050000X-1.050000X1.050000X-1.050000X1.050000X1.050000X0*%
%TD*%
%TA.AperFunction,ComponentPad*%
%ADD25R,1.574800X1.574800*%
%TD*%
%TA.AperFunction,ComponentPad*%
%ADD26C,1.574800*%
%TD*%
%TA.AperFunction,SMDPad,CuDef*%
%ADD27RoundRect,0.218750X0.218750X0.381250X-0.218750X0.381250X-0.218750X-0.381250X0.218750X-0.381250X0*%
%TD*%
%TA.AperFunction,SMDPad,CuDef*%
%ADD28RoundRect,0.250000X-0.650000X1.000000X-0.650000X-1.000000X0.650000X-1.000000X0.650000X1.000000X0*%
%TD*%
%TA.AperFunction,SMDPad,CuDef*%
%ADD29RoundRect,0.250000X-0.475000X0.250000X-0.475000X-0.250000X0.475000X-0.250000X0.475000X0.250000X0*%
%TD*%
%TA.AperFunction,ComponentPad*%
%ADD30R,1.700000X1.700000*%
%TD*%
%TA.AperFunction,ComponentPad*%
%ADD31C,1.700000*%
%TD*%
%TA.AperFunction,SMDPad,CuDef*%
%ADD32RoundRect,0.250000X1.500000X0.550000X-1.500000X0.550000X-1.500000X-0.550000X1.500000X-0.550000X0*%
%TD*%
%TA.AperFunction,SMDPad,CuDef*%
%ADD33RoundRect,0.250000X0.450000X-0.262500X0.450000X0.262500X-0.450000X0.262500X-0.450000X-0.262500X0*%
%TD*%
%TA.AperFunction,ComponentPad*%
%ADD34R,2.000000X2.000000*%
%TD*%
%TA.AperFunction,ComponentPad*%
%ADD35RoundRect,0.250000X1.050000X-1.050000X1.050000X1.050000X-1.050000X1.050000X-1.050000X-1.050000X0*%
%TD*%
%TA.AperFunction,ComponentPad*%
%ADD36RoundRect,0.250001X-0.949999X-0.949999X0.949999X-0.949999X0.949999X0.949999X-0.949999X0.949999X0*%
%TD*%
%TA.AperFunction,ComponentPad*%
%ADD37C,2.400000*%
%TD*%
%TA.AperFunction,ViaPad*%
%ADD38C,4.000000*%
%TD*%
%TA.AperFunction,ViaPad*%
%ADD39C,2.000000*%
%TD*%
%TA.AperFunction,Conductor*%
%ADD40C,2.000000*%
%TD*%
%TA.AperFunction,Conductor*%
%ADD41C,0.750000*%
%TD*%
%TA.AperFunction,Conductor*%
%ADD42C,1.000000*%
%TD*%
%TA.AperFunction,Conductor*%
%ADD43C,0.450000*%
%TD*%
G04 APERTURE END LIST*
D10*
%TO.P,C10,1*%
%TO.N,/5V*%
X155407677Y-71250000D03*
%TO.P,C10,2*%
%TO.N,GND*%
X157307677Y-71250000D03*
%TD*%
D11*
%TO.P,R5,1*%
%TO.N,/VOUT_SENSE*%
X165617677Y-77750000D03*
%TO.P,R5,2*%
%TO.N,/+VOUT_SENSE*%
X163792677Y-77750000D03*
%TD*%
D12*
%TO.P,U2,1,A1_1*%
%TO.N,GND*%
X167962677Y-86675000D03*
%TO.P,U2,2,A0_2*%
X169232677Y-86675000D03*
%TO.P,U2,3,SDA_3*%
%TO.N,/SDA*%
X170502677Y-86675000D03*
%TO.P,U2,4,SCL_4*%
%TO.N,/SCL*%
X171772677Y-86675000D03*
%TO.P,U2,5,VS_5*%
%TO.N,/3.3V*%
X171772677Y-81725000D03*
%TO.P,U2,6,GND_6*%
%TO.N,GND*%
X170502677Y-81725000D03*
%TO.P,U2,7,IN-_7*%
%TO.N,/+VOUT_SENSE*%
X169232677Y-81725000D03*
%TO.P,U2,8,IN+_8*%
%TO.N,/+VOUT*%
X167962677Y-81725000D03*
%TD*%
D13*
%TO.P,C12,1*%
%TO.N,/VOUT_SENSE*%
X169117677Y-78150000D03*
%TO.P,C12,2*%
%TO.N,GND*%
X169117677Y-76250000D03*
%TD*%
D14*
%TO.P,A1,1,D1/TX_1*%
%TO.N,unconnected-(A1-D1{slash}TX-Pad1)*%
X148807677Y-105490000D03*
D15*
%TO.P,A1,2,D0/RX_2*%
%TO.N,unconnected-(A1-D0{slash}RX-Pad2)*%
X151347677Y-105490000D03*
%TO.P,A1,3,~{RESET}_3*%
%TO.N,unconnected-(A1-~{RESET}-Pad3)*%
X153887677Y-105490000D03*
%TO.P,A1,4,GND_4*%
%TO.N,GND*%
X156427677Y-105490000D03*
%TO.P,A1,5,D2_5*%
%TO.N,/D2*%
X158967677Y-105490000D03*
%TO.P,A1,6,D3_6*%
%TO.N,/D3*%
X161507677Y-105490000D03*
%TO.P,A1,7,D4_7*%
%TO.N,/D4*%
X164047677Y-105490000D03*
%TO.P,A1,8,D5_8*%
%TO.N,/D5*%
X166587677Y-105490000D03*
%TO.P,A1,9,D6_9*%
%TO.N,/D6*%
X169127677Y-105490000D03*
%TO.P,A1,10,D7_10*%
%TO.N,/D7*%
X171667677Y-105490000D03*
%TO.P,A1,11,D8_11*%
%TO.N,unconnected-(A1-D8-Pad11)*%
X174207677Y-105490000D03*
%TO.P,A1,12,D9_12*%
%TO.N,unconnected-(A1-D9-Pad12)*%
X176747677Y-105490000D03*
%TO.P,A1,13,D10_13*%
%TO.N,unconnected-(A1-D10-Pad13)*%
X179287677Y-105490000D03*
%TO.P,A1,14,D11_14*%
%TO.N,unconnected-(A1-D11-Pad14)*%
X181827677Y-105490000D03*
%TO.P,A1,15,D12_15*%
%TO.N,unconnected-(A1-D12-Pad15)*%
X184367677Y-105490000D03*
%TO.P,A1,16,D13_16*%
%TO.N,unconnected-(A1-D13-Pad16)*%
X184367677Y-90250000D03*
%TO.P,A1,17,3V3_17*%
%TO.N,/3.3V*%
X181827677Y-90250000D03*
%TO.P,A1,18,AREF_18*%
%TO.N,unconnected-(A1-AREF-Pad18)*%
X179287677Y-90250000D03*
%TO.P,A1,19,A0_19*%
%TO.N,/VOUT_SENSE*%
X176747677Y-90250000D03*
%TO.P,A1,20,A1_20*%
%TO.N,unconnected-(A1-A1-Pad20)*%
X174207677Y-90250000D03*
%TO.P,A1,21,A2_21*%
%TO.N,unconnected-(A1-A2-Pad21)*%
X171667677Y-90250000D03*
%TO.P,A1,22,A3_22*%
%TO.N,unconnected-(A1-A3-Pad22)*%
X169127677Y-90250000D03*
%TO.P,A1,23,A4_23*%
%TO.N,/SDA*%
X166587677Y-90250000D03*
%TO.P,A1,24,A5_24*%
%TO.N,/SCL*%
X164047677Y-90250000D03*
%TO.P,A1,25,A6_25*%
%TO.N,unconnected-(A1-A6-Pad25)*%
X161507677Y-90250000D03*
%TO.P,A1,26,A7_26*%
%TO.N,unconnected-(A1-A7-Pad26)*%
X158967677Y-90250000D03*
%TO.P,A1,27,+5V_27*%
%TO.N,/5V*%
X156427677Y-90250000D03*
%TO.P,A1,28,~{RESET}_28*%
%TO.N,unconnected-(A1-~{RESET}-Pad28)*%
X153887677Y-90250000D03*
%TO.P,A1,29,GND_29*%
%TO.N,GND*%
X151347677Y-90250000D03*
%TO.P,A1,30,VIN_30*%
%TO.N,/5V*%
X148807677Y-90250000D03*
%TD*%
D16*
%TO.P,U1,1,GND_1*%
%TO.N,GND*%
X121587777Y-91750000D03*
%TO.P,U1,2,FB_2*%
%TO.N,Net-(J3-Pin_2)*%
X123437777Y-91750000D03*
%TO.P,U1,3,OUT_3*%
%TO.N,Net-(D3-K)*%
X125287777Y-91750000D03*
%TO.P,U1,4,VC_4*%
%TO.N,Net-(U1-VC)*%
X127137777Y-91750000D03*
%TO.P,U1,5,VIN_5*%
%TO.N,/+VRAW*%
X128987777Y-91750000D03*
%TD*%
D17*
%TO.P,C6,1*%
%TO.N,/+VRAW*%
X135500000Y-89750000D03*
D18*
%TO.P,C6,2*%
%TO.N,GND*%
X140500000Y-89750000D03*
%TD*%
D19*
%TO.P,R1,1*%
%TO.N,/+VRAW*%
X125455177Y-67250000D03*
%TO.P,R1,2*%
%TO.N,GND*%
X127280177Y-67250000D03*
%TD*%
D20*
%TO.P,J5,1,Pin_1_1*%
%TO.N,/+VOUT_SENSE*%
X167857677Y-70750000D03*
D21*
%TO.P,J5,2,Pin_2_2*%
%TO.N,GND*%
X162857677Y-70750000D03*
%TD*%
D17*
%TO.P,C7,1*%
%TO.N,/+VOUT*%
X135000000Y-101750000D03*
D18*
%TO.P,C7,2*%
%TO.N,GND*%
X140000000Y-101750000D03*
%TD*%
D22*
%TO.P,R3,1*%
%TO.N,/+VOUT*%
X159617677Y-82962500D03*
%TO.P,R3,2*%
%TO.N,/+VOUT_SENSE*%
X159617677Y-77037500D03*
%TD*%
D23*
%TO.P,C5,1*%
%TO.N,/3.3V*%
X176517677Y-86250000D03*
%TO.P,C5,2*%
%TO.N,GND*%
X174617677Y-86250000D03*
%TD*%
D24*
%TO.P,J3,1,Pin_1_1*%
%TO.N,GND*%
X112867677Y-91750000D03*
D21*
%TO.P,J3,2,Pin_2_2*%
%TO.N,Net-(J3-Pin_2)*%
X112867677Y-96750000D03*
%TO.P,J3,3,Pin_3_3*%
%TO.N,/+VOUT*%
X112867677Y-101750000D03*
%TD*%
D25*
%TO.P,U3,1,VI_1*%
%TO.N,/+VRAW*%
X148367677Y-82249932D03*
D26*
%TO.P,U3,2,GND_2*%
%TO.N,GND*%
X150907677Y-82249932D03*
%TO.P,U3,3,VO_3*%
%TO.N,/5V*%
X153447677Y-82249932D03*
%TD*%
D27*
%TO.P,L3,1,1_1*%
%TO.N,Net-(D3-K)*%
X128930177Y-105750000D03*
%TO.P,L3,2,2_2*%
%TO.N,/+VOUT*%
X126805177Y-105750000D03*
%TD*%
D28*
%TO.P,D3,1,K_1*%
%TO.N,Net-(D3-K)*%
X125367677Y-96750000D03*
%TO.P,D3,2,A_2*%
%TO.N,GND*%
X125367677Y-100750000D03*
%TD*%
D29*
%TO.P,C4,1*%
%TO.N,/+VRAW*%
X129867677Y-95750000D03*
%TO.P,C4,2*%
%TO.N,Net-(U1-VC)*%
X129867677Y-97650000D03*
%TD*%
%TO.P,CFF1,1*%
%TO.N,Net-(J3-Pin_2)*%
X121367677Y-95800000D03*
%TO.P,CFF1,2*%
%TO.N,/+VOUT*%
X121367677Y-97700000D03*
%TD*%
D11*
%TO.P,R4,1*%
%TO.N,Net-(J6-Pin_15)*%
X148192677Y-108750000D03*
%TO.P,R4,2*%
%TO.N,/5V*%
X146367677Y-108750000D03*
%TD*%
D30*
%TO.P,J6,1,Pin_1_1*%
%TO.N,GND*%
X141167677Y-112500000D03*
D31*
%TO.P,J6,2,Pin_2_2*%
%TO.N,/5V*%
X143707677Y-112500000D03*
%TO.P,J6,3,Pin_3_3*%
%TO.N,Net-(J4-Pin_2)*%
X146247677Y-112500000D03*
%TO.P,J6,4,Pin_4_4*%
%TO.N,/D2*%
X148787677Y-112500000D03*
%TO.P,J6,5,Pin_5_5*%
%TO.N,Net-(J4-Pin_1)*%
X151327677Y-112500000D03*
%TO.P,J6,6,Pin_6_6*%
%TO.N,/D3*%
X153867677Y-112500000D03*
%TO.P,J6,7,Pin_7_7*%
%TO.N,unconnected-(J6-Pin_7-Pad7)*%
X156407677Y-112500000D03*
%TO.P,J6,8,Pin_8_8*%
%TO.N,unconnected-(J6-Pin_8-Pad8)*%
X158947677Y-112500000D03*
%TO.P,J6,9,Pin_9_9*%
%TO.N,unconnected-(J6-Pin_9-Pad9)*%
X161487677Y-112500000D03*
%TO.P,J6,10,Pin_10_10*%
%TO.N,unconnected-(J6-Pin_10-Pad10)*%
X164027677Y-112500000D03*
%TO.P,J6,11,Pin_11_11*%
%TO.N,/D4*%
X166567677Y-112500000D03*
%TO.P,J6,12,Pin_12_12*%
%TO.N,/D5*%
X169107677Y-112500000D03*
%TO.P,J6,13,Pin_13_13*%
%TO.N,/D6*%
X171647677Y-112500000D03*
%TO.P,J6,14,Pin_14_14*%
%TO.N,/D7*%
X174187677Y-112500000D03*
%TO.P,J6,15,Pin_15_15*%
%TO.N,Net-(J6-Pin_15)*%
X176727677Y-112500000D03*
%TO.P,J6,16,Pin_16_16*%
%TO.N,GND*%
X179267677Y-112500000D03*
%TD*%
D32*
%TO.P,C9,1*%
%TO.N,/5V*%
X151157677Y-71000000D03*
%TO.P,C9,2*%
%TO.N,GND*%
X145557677Y-71000000D03*
%TD*%
D11*
%TO.P,R2,1*%
%TO.N,/+VOUT*%
X124280177Y-105750000D03*
%TO.P,R2,2*%
%TO.N,Net-(J3-Pin_2)*%
X122455177Y-105750000D03*
%TD*%
D33*
%TO.P,R6,1*%
%TO.N,/VOUT_SENSE*%
X172367677Y-78075000D03*
%TO.P,R6,2*%
%TO.N,GND*%
X172367677Y-76250000D03*
%TD*%
D29*
%TO.P,C11,1*%
%TO.N,/+VRAW*%
X129867677Y-99800000D03*
%TO.P,C11,2*%
%TO.N,GND*%
X129867677Y-101700000D03*
%TD*%
%TO.P,C3,1*%
%TO.N,/+VOUT*%
X121367677Y-99800000D03*
%TO.P,C3,2*%
%TO.N,GND*%
X121367677Y-101700000D03*
%TD*%
D34*
%TO.P,D1,1,+_1*%
%TO.N,/+VRAW*%
X121367677Y-67250000D03*
D18*
%TO.P,D1,2*%
%TO.N,/ScrewTerminal1*%
X121367677Y-72250000D03*
%TO.P,D1,3,-_3*%
%TO.N,GND*%
X121367677Y-77250000D03*
%TO.P,D1,4*%
%TO.N,/ScrewTerminal2*%
X121367677Y-82250000D03*
%TD*%
D35*
%TO.P,J4,1,Pin_1_1*%
%TO.N,Net-(J4-Pin_1)*%
X185867677Y-85250000D03*
D21*
%TO.P,J4,2,Pin_2_2*%
%TO.N,Net-(J4-Pin_2)*%
X185867677Y-80250000D03*
%TO.P,J4,3,Pin_3_3*%
%TO.N,/5V*%
X185867677Y-75250000D03*
%TD*%
D24*
%TO.P,J2,1,Pin_1_1*%
%TO.N,/ScrewTerminal1*%
X113000177Y-76250000D03*
D21*
%TO.P,J2,2,Pin_2_2*%
%TO.N,/ScrewTerminal2*%
X113000177Y-81250000D03*
%TD*%
D36*
%TO.P,C1,1*%
%TO.N,/+VRAW*%
X129854923Y-75750000D03*
D37*
%TO.P,C1,2*%
%TO.N,GND*%
X137354923Y-75750000D03*
%TD*%
D38*
%TO.N,/5V*%
X142367677Y-107500000D03*
D39*
%TO.N,GND*%
X166117677Y-87000000D03*
X125367677Y-103500000D03*
X120755177Y-103500000D03*
D38*
%TO.N,/VOUT_SENSE*%
X177617677Y-76250000D03*
%TO.N,/+VOUT*%
X159367677Y-85750000D03*
%TD*%
%TO.N,/5V*%
D40*
X151407677Y-71250000D02*
X151157677Y-71000000D01*
X153447677Y-82670000D02*
X153447677Y-82249932D01*
X155407677Y-71250000D02*
X151407677Y-71250000D01*
X143707677Y-108840000D02*
X142367677Y-107500000D01*
X153447677Y-82249932D02*
X153447677Y-76040000D01*
X153447677Y-76040000D02*
X155407677Y-74080000D01*
X155407677Y-74080000D02*
X155407677Y-71250000D01*
X142367677Y-107500000D02*
X148807677Y-101060000D01*
X155455177Y-71297500D02*
X155407677Y-71250000D01*
X177617677Y-67000000D02*
X158367677Y-67000000D01*
X146367677Y-108750000D02*
X143617677Y-108750000D01*
X158367677Y-67000000D02*
X155407677Y-69960000D01*
X156427677Y-90250000D02*
X156427677Y-90538428D01*
X185867677Y-75250000D02*
X177617677Y-67000000D01*
X155407677Y-69960000D02*
X155407677Y-71250000D01*
X148807677Y-101060000D02*
X148807677Y-90250000D01*
X143617677Y-108750000D02*
X142367677Y-107500000D01*
X148807677Y-87310000D02*
X153447677Y-82670000D01*
X143707677Y-112500000D02*
X143707677Y-108840000D01*
X148807677Y-90250000D02*
X148807677Y-87310000D01*
%TO.N,GND*%
D41*
X129867677Y-101700000D02*
X132376346Y-101700000D01*
D42*
X157807677Y-70750000D02*
X157307677Y-71250000D01*
X166442677Y-86675000D02*
X166117677Y-87000000D01*
D41*
X164857677Y-68750000D02*
X162857677Y-70750000D01*
X132376346Y-101700000D02*
X133901346Y-100175000D01*
D42*
X162857677Y-70750000D02*
X157807677Y-70750000D01*
D41*
X135780177Y-75750000D02*
X137354923Y-75750000D01*
D42*
X167962677Y-86675000D02*
X166442677Y-86675000D01*
X145557677Y-71000000D02*
X142104923Y-71000000D01*
X125367677Y-100750000D02*
X125367677Y-103500000D01*
D41*
X127280177Y-67250000D02*
X135780177Y-75750000D01*
X172367677Y-71986346D02*
X169131331Y-68750000D01*
X172367677Y-76250000D02*
X169117677Y-76250000D01*
D42*
X174116439Y-86250000D02*
X170502677Y-82636238D01*
D41*
X169131331Y-68750000D02*
X164857677Y-68750000D01*
D42*
X142104923Y-71000000D02*
X137354923Y-75750000D01*
X174617677Y-86250000D02*
X174116439Y-86250000D01*
X169232677Y-86675000D02*
X167962677Y-86675000D01*
X169232677Y-86675000D02*
X169232677Y-83906238D01*
X120755177Y-103500000D02*
X120755177Y-102312500D01*
D41*
X133901346Y-100175000D02*
X138425000Y-100175000D01*
X138425000Y-100175000D02*
X140000000Y-101750000D01*
D42*
X169232677Y-83906238D02*
X170502677Y-82636238D01*
X170502677Y-82636238D02*
X170502677Y-81725000D01*
D41*
X172367677Y-76250000D02*
X172367677Y-71986346D01*
D42*
X120755177Y-102312500D02*
X121367677Y-101700000D01*
%TO.N,/VOUT_SENSE*%
D40*
X169117677Y-78150000D02*
X166017677Y-78150000D01*
X165992677Y-78125000D02*
X165992677Y-77750000D01*
X166017677Y-78150000D02*
X165992677Y-78125000D01*
X175717677Y-78150000D02*
X169117677Y-78150000D01*
X177617677Y-76250000D02*
X175717677Y-78150000D01*
%TO.N,/+VOUT_SENSE*%
D42*
X168368915Y-79950000D02*
X163567677Y-79950000D01*
X163567677Y-79950000D02*
X162282677Y-78665000D01*
D40*
X159617677Y-77037500D02*
X161570177Y-77037500D01*
D42*
X162282677Y-78665000D02*
X162282677Y-77750000D01*
D40*
X163792677Y-77750000D02*
X162282677Y-77750000D01*
D42*
X169232677Y-80813762D02*
X168368915Y-79950000D01*
D40*
X161570177Y-77037500D02*
X167857677Y-70750000D01*
X162282677Y-77750000D02*
X161570177Y-77037500D01*
D42*
X169232677Y-81725000D02*
X169232677Y-80813762D01*
%TO.N,/SDA*%
X170502677Y-87586238D02*
X169338915Y-88750000D01*
X168087677Y-88750000D02*
X166587677Y-90250000D01*
X170502677Y-86675000D02*
X170502677Y-87586238D01*
X169338915Y-88750000D02*
X168087677Y-88750000D01*
%TO.N,/SCL*%
D43*
X172982677Y-90757412D02*
X172982677Y-87885000D01*
X165272677Y-91475000D02*
X172265089Y-91475000D01*
X164047677Y-90250000D02*
X165272677Y-91475000D01*
X171772677Y-86675000D02*
X171772677Y-85905000D01*
X172982677Y-87885000D02*
X171772677Y-86675000D01*
X172265089Y-91475000D02*
X172982677Y-90757412D01*
%TO.N,/3.3V*%
D40*
X179867677Y-82750000D02*
X178617677Y-81500000D01*
X181750000Y-84632323D02*
X179867677Y-82750000D01*
X181827677Y-90250000D02*
X181750000Y-90250000D01*
X179867677Y-82750000D02*
X179867677Y-82900000D01*
X179867677Y-82900000D02*
X176517677Y-86250000D01*
X178617677Y-81500000D02*
X172367677Y-81500000D01*
X181750000Y-90250000D02*
X181750000Y-84632323D01*
%TO.N,/+VOUT*%
X124280177Y-105750000D02*
X124280177Y-108662500D01*
X159367677Y-85750000D02*
X159617677Y-85500000D01*
X112867677Y-101750000D02*
X119867677Y-108750000D01*
X128542655Y-108750000D02*
X135000000Y-102292655D01*
X159617677Y-85500000D02*
X159617677Y-82962500D01*
X126867677Y-108750000D02*
X128542655Y-108750000D01*
X126805177Y-105750000D02*
X126805177Y-108687500D01*
D42*
X167962677Y-81725000D02*
X166142677Y-81725000D01*
D40*
X126805177Y-108687500D02*
X126867677Y-108750000D01*
X164905177Y-82962500D02*
X166117677Y-81750000D01*
X121367677Y-97700000D02*
X121367677Y-99800000D01*
X119867677Y-108750000D02*
X124367677Y-108750000D01*
X112867677Y-101750000D02*
X114817677Y-99800000D01*
X124280177Y-108662500D02*
X124367677Y-108750000D01*
D42*
X166142677Y-81725000D02*
X166117677Y-81750000D01*
D40*
X135000000Y-102292655D02*
X135000000Y-101750000D01*
X124367677Y-108750000D02*
X126867677Y-108750000D01*
X114817677Y-99800000D02*
X121367677Y-99800000D01*
X159617677Y-82962500D02*
X164905177Y-82962500D01*
%TO.N,Net-(J3-Pin_2)*%
D42*
X113817677Y-95800000D02*
X121367677Y-95800000D01*
X112867677Y-96750000D02*
X113817677Y-95800000D01*
X123437777Y-93729900D02*
X122392677Y-94775000D01*
X122392677Y-94775000D02*
X121367677Y-95800000D01*
X123437777Y-91750000D02*
X123487777Y-91800000D01*
X122455177Y-102687930D02*
X122455177Y-105750000D01*
X123067677Y-95450000D02*
X123067677Y-102075430D01*
X123577877Y-91750000D02*
X123437777Y-91750000D01*
X123067677Y-102075430D02*
X122455177Y-102687930D01*
X122392677Y-94775000D02*
X123067677Y-95450000D01*
X123437777Y-91750000D02*
X123437777Y-93729900D01*
%TO.N,Net-(D3-K)*%
X125367677Y-96750000D02*
X125367677Y-91829900D01*
X125367677Y-91829900D02*
X125287777Y-91750000D01*
X127117677Y-102000000D02*
X128992677Y-103875000D01*
X127117677Y-98500000D02*
X127117677Y-102000000D01*
X125287777Y-96670100D02*
X125367677Y-96750000D01*
X128992677Y-103875000D02*
X128992677Y-105750000D01*
X127117677Y-98500000D02*
X125367677Y-96750000D01*
X125500000Y-91962223D02*
X125287777Y-91750000D01*
%TO.N,Net-(U1-VC)*%
X127137777Y-91750000D02*
X127137777Y-95424263D01*
X129363514Y-97650000D02*
X129867677Y-97650000D01*
X127137777Y-95424263D02*
X129363514Y-97650000D01*
%TO.N,/+VRAW*%
D40*
X129037777Y-91890100D02*
X129867677Y-92720000D01*
X148367677Y-82249932D02*
X136354855Y-82249932D01*
X125367677Y-67250000D02*
X123367677Y-69250000D01*
X125455177Y-71350254D02*
X125455177Y-71337500D01*
X130750215Y-95750000D02*
X129867677Y-95750000D01*
X136354855Y-82249932D02*
X135500000Y-81395077D01*
X129037777Y-91420100D02*
X129037777Y-91890100D01*
X130707877Y-89750000D02*
X129037777Y-91420100D01*
X135500000Y-89750000D02*
X136354855Y-88895145D01*
X135500000Y-81395077D02*
X129854923Y-75750000D01*
X136354855Y-88895145D02*
X136354855Y-88895077D01*
X130500215Y-99800000D02*
X131792677Y-98507538D01*
X136354855Y-88895077D02*
X143000000Y-82249932D01*
X129867677Y-92720000D02*
X129867677Y-95750000D01*
X131792677Y-98507538D02*
X131792677Y-96792462D01*
X125455177Y-71337500D02*
X123367677Y-69250000D01*
X131792677Y-96792462D02*
X130750215Y-95750000D01*
X129867677Y-99800000D02*
X130500215Y-99800000D01*
X129854923Y-75750000D02*
X125455177Y-71350254D01*
X123367677Y-69250000D02*
X121367677Y-67250000D01*
X125455177Y-67250000D02*
X125367677Y-67250000D01*
X135500000Y-89750000D02*
X130707877Y-89750000D01*
%TO.N,Net-(J6-Pin_15)*%
D42*
X173227677Y-108750000D02*
X148192677Y-108750000D01*
X176727677Y-112250000D02*
X173227677Y-108750000D01*
%TO.N,Net-(J4-Pin_1)*%
X185867677Y-108092032D02*
X179909709Y-114050000D01*
X185867677Y-85250000D02*
X185867677Y-108092032D01*
X152877677Y-114050000D02*
X151327677Y-112500000D01*
X179909709Y-114050000D02*
X152877677Y-114050000D01*
%TO.N,/ScrewTerminal1*%
X113000177Y-76250000D02*
X117367677Y-76250000D01*
X117367677Y-76250000D02*
X121367677Y-72250000D01*
%TO.N,/ScrewTerminal2*%
X120367677Y-81250000D02*
X121367677Y-82250000D01*
X113000177Y-81250000D02*
X120367677Y-81250000D01*
%TD*%
M02*
